# xmcd
# 
# Track frame offsets:
#	150
#	9130
#	19096
#	30200
#	40826
#	50535
#	60600
#	69969
#	80049
#	91740
#	102214
#	110907
#	119472
#	131155
#	142465
#	151227
#	161696
#	176187
#	188889
#	199461
#
# Disc length: 2821 seconds
#
# Revision: 1
# Processed by: cddbd v1.4PL0 Copyright (c) Steve Scherf et al.
# Submitted via: Audio-CD-Archiv 2.10.435
#
DISCID=170b0314
DTITLE=Johnny Horton - Hot 'n' Hittin'
DYEAR=1900
DGENRE=country
TTITLE0=I'm a one woman man
TTITLE1=Honky Tonk man
TTITLE2=I'm ready if you're willing
TTITLE3=I got a hole in my pirogue
TTITLE4=I don't like I did
TTITLE5=Sugar coated Baby
TTITLE6=I'm coming home
TTITLE7=The woman I need
TTITLE8=Lover's Rock
TTITLE9=Honky tonk hardwood floor
TTITLE10=The wild one
TTITLE11=All grown up
TTITLE12=When it's springtime in Alaska
TTITLE13=The battle of New Orleans
TTITLE14=Sal's got a sugarlip
TTITLE15=Johnny Reb
TTITLE16=Sink the Bismark
TTITLE17=North to Alaska
TTITLE18=Ole slew foot
TTITLE19=Sleepy eyed John
EXTD=
EXTT0=
EXTT1=
EXTT2=
EXTT3=
EXTT4=
EXTT5=
EXTT6=
EXTT7=
EXTT8=
EXTT9=
EXTT10=
EXTT11=
EXTT12=
EXTT13=
EXTT14=
EXTT15=
EXTT16=
EXTT17=
EXTT18=
EXTT19=
PLAYORDER=
